<svg width="74" height="54" viewBox="0 0 74 54" fill="none" xmlns="http://www.w3.org/2000/svg">
<path fill-rule="evenodd" clip-rule="evenodd" d="M46.3682 54C38.3471 54 31.14 50.5273 26.1786 45.0085H39.8798V43.7528H31.1501V25.2982H35.8623V40.0379H37.4331V25.2982H42.1756V40.0379H43.2328V45.0085H66.5576C61.5966 50.5273 54.3892 54 46.3682 54ZM19.4813 23.6218H73.2552C71.587 10.3046 60.1854 0 46.3682 0C32.5512 0 21.1495 10.3046 19.4813 23.6218ZM73.4754 27C73.4754 27.2633 73.4713 27.5258 73.4637 27.7874H46.4037V26.8222H73.4744C73.4749 26.851 73.4749 26.8799 73.4749 26.9087C73.4749 26.9391 73.4754 26.9696 73.4754 27ZM46.4037 28.8034H73.4158C73.3943 29.1267 73.3673 29.4485 73.3347 29.7686H46.4037V28.8034ZM46.4037 30.7846H73.2113C73.1654 31.1082 73.1144 31.4299 73.0574 31.7498H46.4037V30.7846ZM46.4037 32.7658H72.856C72.7851 33.0897 72.7086 33.4115 72.6266 33.7309H46.4037V32.7658ZM46.4037 34.7469H72.3431C72.2457 35.0713 72.1427 35.3931 72.0336 35.7121H46.4037V34.7469ZM46.4037 36.7281H71.663C71.5371 37.0529 71.405 37.3747 71.2669 37.6933H46.4037V36.7281ZM46.4037 38.7093H70.8014C70.6439 39.0347 70.4802 39.3565 70.3099 39.6745H46.4037V38.7093ZM46.4037 40.6905H69.7384C69.5457 41.0167 69.3459 41.3385 69.1399 41.6557H46.4037V40.6905ZM46.4037 42.6717H68.446C68.2115 42.9989 67.9698 43.3207 67.7216 43.6369H46.4037V42.6717ZM73.4494 25.8062C73.4351 25.483 73.4152 25.1612 73.3898 24.841H46.4037V25.8062H73.4494ZM0 43.7893H4.80474V29.0371H8.31008V25.349H0V43.7893ZM9.6866 25.349H17.6454V29.0347H14.4919V32.5107H17.4051V36.0166H14.4919V40.0919H17.9457V43.6877H9.6866V25.349ZM24.1464 43.7606H19.4417V25.3395H25.2623C27.1924 25.3396 29.1087 26.1967 29.5147 27.7135C29.8765 29.0658 29.8501 32.3413 29.6654 33.6636C29.5857 34.2345 29.0924 36.0676 26.1972 36.278C25.4924 36.3292 25.095 36.3173 24.7737 36.3076H24.7736C24.5738 36.3016 24.4033 36.2965 24.2067 36.3081V43.7606H24.1464ZM24.8099 28.4347H24.2067V33.1527C24.2067 33.1527 24.6289 33.1527 24.9305 33.1227C25.2321 33.0926 25.775 32.7921 25.775 32.2512C25.775 31.9674 25.7682 31.4961 25.7612 30.9985C25.7532 30.4422 25.7448 29.8531 25.7448 29.4565C25.7347 29.176 25.6242 28.4347 24.8099 28.4347Z" fill="#0074AD"/>
</svg>

